<?xml version="1.0" encoding="UTF-8"?>
<svg id="Layer_1" data-name="Layer 1" xmlns="http://www.w3.org/2000/svg" version="1.1" viewBox="0 0 512 512">
  <defs>
    <style>
      .cls-1 {
        fill: #d4d4d4;
      }

      .cls-1, .cls-2 {
        stroke-width: 0px;
      }

      .cls-2 {
        fill: #fff;
        fill-opacity: 0;
      }
    </style>
  </defs>
  <path class="cls-2" d="M512,284.9v226.9H0c0-73,0-146,.4-219.4.8.9,1.3,2.1,1.6,3.3,3,14.2,5.4,28.5,9,42.5,4.7,18.1,12.8,34.9,22.1,51,10.8,18.8,23.7,36.2,38.9,51.6,10.3,10.5,21.4,20.5,33.2,29.2,20.9,15.4,44,27.1,68.8,35,9.5,3,19.2.2,19.1-13.9-.1-14,0-28,0-42,0-1.4-.1-2.9-.2-4.6-5.2.8-10.1,2.2-14.9,2.1-11.3-.2-22.8-.3-33.9-2.1-15.8-2.5-28.3-10.4-35.3-25.5-2.8-6.1-5.4-12.4-8.8-18.2-4.5-7.7-9.2-15.2-16.8-20.6-5.8-4.1-12.4-7.6-15.4-15.9,3.8-.7,7.5-2.3,11.1-2,15.3,1.4,26.9,9.7,36.1,21.5,6.3,8,10.3,17.7,19.1,23.6,9.8,6.7,20.1,10.9,32.2,8.4,7.4-1.5,14.9-2.5,22.3-4.1,2.8-.6,6-1.4,5.6-5.9-.2-2.1,1.2-4.3,1.7-6.5,2.2-9.5,7.3-17.3,14.8-24.9-6.2-.6-11.4-.7-16.5-1.7-17.3-3.5-34.4-8-49.8-17.1-10.3-6.1-20-13-27-22.5-17-23-23.1-49.9-24.1-77.9-.3-8.5.7-17,1.9-25.5,2.5-17.5,10.2-32.7,21.6-46.1,2.1-2.4,2.5-4.2,1.6-7.4-1.9-6.6-3.4-13.5-4.2-20.3-1.3-11.4,1.3-22.4,4-33.4,2.8-11.1,5.4-12.5,17.1-9.8,17.4,4.1,33.2,11.7,48.3,21.1,5.3,3.3,10.2,6.4,16.8,3.1,3.1-1.5,6.9-1.6,10.4-2.1,8.5-1.4,16.9-3,25.5-3.9,7-.8,14.2-1.2,21.2-1,7.7.2,15.4,1,23,1.9,8.4,1,16.8,1.8,25,3.9,8.9,2.2,16.7,3.3,25.2-2.7,14.5-10.2,30.7-17.3,48.2-21.1,8-1.8,11.1-.2,13.6,7.8,1.6,5.2,2.8,10.5,4,15.9,2.6,12,2.7,24.1-1.4,35.7-2.2,6.3-1.4,10.9,3,16.1,14.4,17,20.3,37.3,20.9,59.1.3,9.1-1.1,18.3-1.9,27.5-1.4,15.7-6.1,30.6-13.1,44.7-8.6,17.1-22.3,29.2-39,38.2-16.4,8.8-33.8,14-52.3,16-3.5.4-6.9,1.3-10.8,2.1,12,11.9,16.8,26,17.1,41.5.4,24.8.1,49.7.1,74.5,0,11.9,8.3,18.2,19.6,13.8,14.3-5.6,28.5-11.7,42.2-18.5,20.1-9.9,37.6-23.9,53.4-39.5,9.3-9.2,18-19.2,25.7-29.7,9.2-12.6,18.2-25.5,25.2-39.4,7.2-14.2,12.8-29.4,17.5-44.7,3.7-11.8,5-24.3,7.3-36.5.7-3.9,1.3-7.8,2-11.7Z"/>
  <path class="cls-1" d="M512,284.4c-.7,4.4-1.3,8.3-2,12.1-2.3,12.2-3.6,24.7-7.3,36.5-4.7,15.3-10.3,30.5-17.5,44.7-7,13.8-16,26.8-25.2,39.4-7.7,10.5-16.4,20.5-25.7,29.7-15.9,15.7-33.3,29.6-53.4,39.5-13.8,6.8-27.9,12.9-42.2,18.5-11.3,4.4-19.6-1.8-19.6-13.8,0-24.8.3-49.7-.1-74.5-.3-15.5-5.1-29.6-17.1-41.5,3.9-.8,7.3-1.8,10.8-2.1,18.5-1.9,35.9-7.2,52.3-16,16.8-9,30.5-21.1,39-38.2,7-14,11.7-28.9,13.1-44.7.8-9.2,2.1-18.4,1.9-27.5-.6-21.8-6.5-42.2-20.9-59.1-4.4-5.2-5.2-9.8-3-16.1,4.1-11.7,4-23.7,1.4-35.7-1.2-5.3-2.3-10.7-4-15.9-2.5-8-5.6-9.6-13.6-7.8-17.5,3.9-33.7,10.9-48.2,21.1-8.6,6-16.3,4.9-25.2,2.7-8.1-2-16.6-2.8-25-3.9-7.6-.9-15.3-1.8-23-1.9-7.1-.2-14.2.2-21.2,1-8.5.9-17,2.5-25.5,3.9-3.5.6-7.3.6-10.4,2.1-6.7,3.3-11.5.2-16.8-3.1-15-9.4-30.9-17-48.3-21.1-11.7-2.7-14.3-1.4-17.1,9.8-2.7,10.9-5.3,22-4,33.4.8,6.9,2.3,13.7,4.2,20.3.9,3.2.5,5-1.6,7.4-11.4,13.4-19.2,28.6-21.6,46.1-1.2,8.4-2.3,17-1.9,25.5,1.1,28.1,7.1,54.9,24.1,77.9,7,9.5,16.8,16.4,27,22.5,15.5,9.1,32.5,13.6,49.8,17.1,5.1,1,10.3,1.1,16.5,1.7-7.4,7.7-12.6,15.5-14.8,24.9-.5,2.2-1.9,4.4-1.7,6.5.5,4.5-2.8,5.3-5.6,5.9-7.4,1.6-14.9,2.6-22.3,4.1-12.2,2.5-22.4-1.7-32.2-8.4-8.8-6-12.8-15.7-19.1-23.6-9.2-11.7-20.8-20.1-36.1-21.5-3.6-.3-7.3,1.3-11.1,2,3,8.4,9.6,11.9,15.4,15.9,7.6,5.3,12.3,12.9,16.8,20.6,3.4,5.8,5.9,12.1,8.8,18.2,7,15.1,19.6,23.1,35.3,25.5,11.2,1.7,22.6,1.8,33.9,2.1,4.8.1,9.6-1.3,14.9-2.1,0,1.7.2,3.2.2,4.6,0,14-.1,28,0,42,.2,14.1-9.6,16.9-19.1,13.9-24.8-7.8-47.9-19.6-68.8-35-11.8-8.7-22.9-18.7-33.2-29.2-15.2-15.4-28-32.8-38.9-51.6-9.3-16.2-17.4-33-22.1-51-3.6-14-6-28.4-9-42.5-.3-1.2-.8-2.4-1.6-3.8-.4-19.8-.4-39.5,0-59.8,1.8-7.9,3.3-15.1,4.6-22.4,5.6-31.1,17.9-59.6,34.8-86.1,13.7-21.6,30.5-40.6,50-57.2,15.5-13.2,32.3-24.3,50.2-33.6,18.5-9.5,37.8-16.8,58.2-20.9,13.8-2.8,27.9-5.2,41.9-5.9,20.5-1.1,41,0,61.5,3.6,23.6,4.2,46.1,11.5,67.6,21.9,20.4,9.9,39.4,22.3,56.2,37.5,15.7,14.1,29.9,29.6,41.8,47.2,11.8,17.6,22,35.9,29.3,55.7,6.6,18,11.7,36.5,13.6,55.7.4,4.1,1.3,8.1,2,12.2v44.5Z"/>
  <path class="cls-2" d="M512,239.4c-.7-3.6-1.6-7.6-2-11.7-1.9-19.2-6.9-37.7-13.6-55.7-7.3-19.8-17.5-38.2-29.3-55.7-11.9-17.6-26.1-33.1-41.8-47.2-16.9-15.1-35.8-27.6-56.2-37.5-21.5-10.4-43.9-17.7-67.6-21.9-20.4-3.6-40.9-4.6-61.5-3.6-14,.7-28.1,3.1-41.9,5.9-20.4,4.1-39.8,11.4-58.2,20.9-18,9.2-34.8,20.4-50.2,33.6-19.5,16.6-36.3,35.6-50,57.2-16.9,26.5-29.2,54.9-34.8,86.1-1.3,7.3-2.8,14.6-4.6,22C0,154.6,0,77.3,0,0h512v239.5Z"/>
</svg>