<?xml version="1.0" encoding="UTF-8"?>
<svg id="Layer_1" data-name="Layer 1" xmlns="http://www.w3.org/2000/svg" xmlns:xlink="http://www.w3.org/1999/xlink" viewBox="0 0 1001 1001">
  <defs>
    <style>
      .cls-1 {
        fill: none;
        stroke: #9a8bc2;
        stroke-width: 8px;
      }

      .cls-2 {
        fill: #171717;
        stroke: #231f20;
        stroke-miterlimit: 10;
      }

      .cls-3 {
        fill: #dad9d9;
        stroke: #998ac1;
      }

      .cls-4 {
        fill: #fff;
        stroke-width: 0px;
      }

      .cls-5 {
        mask: url(#mask);
      }
    </style>
    <mask id="mask" x="286.24" y="247.57" width="428.51" height="386" maskUnits="userSpaceOnUse">
      <g id="mask0_3_7" data-name="mask0 3 7">
        <path class="cls-3" d="M362.43,545.87h276.13c24.08,0,43.6,19.52,43.6,43.6h0c0,24.08-19.52,43.6-43.6,43.6h-276.13c-24.08,0-43.6-19.52-43.6-43.6h0c0-24.08,19.52-43.6,43.6-43.6Z"/>
      </g>
    </mask>
  </defs>
  <rect class="cls-2" x=".5" y=".5" width="1000" height="1000"/>
  <path class="cls-4" d="M329.8,310.06h33.06v195.83h-33.06v-195.83ZM420.09,358.39c13.56,0,25.09,2.71,34.59,8.14,9.5,5.43,16.7,13.23,21.62,23.4,5.09,10,7.63,22.13,7.63,36.37v79.61h-33.06v-74.26c0-15.09-3.56-26.45-10.68-34.08-6.95-7.8-17.21-11.7-30.77-11.7-9.33,0-17.55,2.12-24.67,6.36-6.95,4.07-12.38,9.83-16.28,17.29-3.73,7.46-5.6,16.19-5.6,26.2l-11.7-6.36c1.53-14.92,5.43-27.64,11.7-38.15,6.27-10.51,14.33-18.57,24.16-24.16,9.83-5.76,20.86-8.65,33.06-8.65ZM517.07,310.06h33.06v195.83h-33.06v-195.83ZM607.36,358.39c13.56,0,25.09,2.71,34.59,8.14,9.5,5.43,16.7,13.23,21.62,23.4,5.09,10,7.63,22.13,7.63,36.37v79.61h-33.06v-74.26c0-15.09-3.56-26.45-10.68-34.08-6.95-7.8-17.21-11.7-30.77-11.7-9.33,0-17.55,2.12-24.67,6.36-6.95,4.07-12.38,9.83-16.28,17.29-3.73,7.46-5.6,16.19-5.6,26.2l-11.7-6.36c1.53-14.92,5.43-27.64,11.7-38.15,6.27-10.51,14.33-18.57,24.16-24.16,9.83-5.76,20.86-8.65,33.06-8.65Z"/>
  <g class="cls-5">
    <path class="cls-1" d="M710.76,440.5c0,103.66-93.41,188.93-210.26,188.93s-210.26-85.27-210.26-188.93,93.41-188.93,210.26-188.93,210.26,85.27,210.26,188.93Z"/>
  </g>
</svg>