<?xml version="1.0" encoding="UTF-8"?>
<svg id="Layer_1" data-name="Layer 1" xmlns="http://www.w3.org/2000/svg" version="1.1" viewBox="0 0 599.7 600.1">
  <defs>
    <style>
      .cls-1 {
        fill: #000;
      }

      .cls-1, .cls-2 {
        stroke-width: 0px;
      }

      .cls-2 {
        fill: #fefefe;
      }
    </style>
  </defs>
  <path class="cls-1" d="M189.1,600.1c-23.5-.4-46.8-.6-70-1.2-17.2-.5-33.8-3.7-49.4-11-32.2-15.1-53.4-39.8-63.5-74-4.4-15.1-5.1-30.6-5.7-46.1-.4-10.5-.5-21-.5-31.5,0-85.9-.1-171.9,0-257.8,0-21.9.4-43.7,1.7-65.6,1.9-32.9,14.9-60.9,40-82.8C60.6,13.7,82.7,4.4,107.5,2.3,124.2.8,140.9.2,157.7.1c85.3-.2,170.6-.2,256,0,22.4,0,44.8.6,67.1,1.2,17.7.5,34.9,3.9,50.9,11.6,31.6,15.2,52.4,39.8,62.3,73.5,4.4,15.1,5.1,30.6,5.7,46.1.4,10,.5,20,.5,29.9,0,93.7.2,187.3,0,281,0,17.8-.5,35.7-2.7,53.2-4.7,36.9-23.2,65.6-55.1,85.2-18.6,11.4-39.1,16.3-60.7,17.2-14.5.6-29,1.1-43.4,1.1-82.9.1-165.8,0-248.9,0M335.8,252.2c-10.2,6.2-18.9,14-26.4,24.2v-34.5h-68.3v240.2h72.5v-2.7c0-41.3,0-82.6,0-123.9,0-5.3.8-10.8,2.1-15.9,3.6-13.2,10.5-24,23.4-29.9,10.4-4.8,21.3-6.1,32.5-4.3,12.1,2,22.1,7.6,28.8,18.2,5.2,8.3,7,17.5,7,27.1,0,42.8,0,85.6,0,128.4,0,1,0,2,0,3.1h72.9c0-1,0-1.9,0-2.8,0-49.4-.1-98.8,0-148.1,0-12.9-2.5-25.1-6.9-37.1-9.3-25.1-26.5-42.5-51.5-51.2-29.8-10.4-58.6-6.9-86.1,9.3M125.2,276.9v205.2h74.3v-240.2h-74.3v35M132.4,193.6c13.1,12.1,28.2,15.6,45,9.6,20.8-7.4,32.1-30,26.3-51.2-5.9-21.4-27.2-34.9-48.9-30.6-16.4,3.2-27.7,13-32.8,28.9-5.1,16.1-1.4,30.6,10.5,43.3Z"/>
  <path class="cls-2" d="M336,252.1c27.4-16.2,56.2-19.7,86-9.2,25,8.8,42.3,26.1,51.5,51.2,4.4,12,7,24.2,6.9,37.1-.2,49.4,0,98.8,0,148.1s0,1.7,0,2.8h-72.9c0-1.1,0-2.1,0-3.1,0-42.8,0-85.6,0-128.4,0-9.6-1.8-18.8-7-27.1-6.7-10.6-16.6-16.2-28.8-18.2-11.2-1.8-22.2-.5-32.5,4.3-12.9,5.9-19.8,16.8-23.4,29.9-1.4,5.1-2.1,10.6-2.1,15.9-.2,41.3,0,82.6,0,123.9v2.7h-72.5v-240.2h68.3v34.5c7.5-10.2,16.3-18,26.6-24.3Z"/>
  <path class="cls-2" d="M125.2,276.6v-34.7h74.3v240.2h-74.3v-205.5Z"/>
  <path class="cls-2" d="M132.2,193.4c-11.7-12.5-15.5-27-10.3-43.1,5.1-15.9,16.4-25.7,32.8-28.9,21.8-4.3,43,9.2,48.9,30.6,5.9,21.2-5.5,43.8-26.3,51.2-16.8,6-31.9,2.5-45.1-9.7Z"/>
</svg>