<svg width="35" height="35" viewBox="0 0 35 35" fill="none" xmlns="http://www.w3.org/2000/svg">
<g clip-path="url(#clip0_185_97)">
<path d="M13.625 20.8333V17.9167M13.625 12.0833V9.16667M12.1667 10.625H15.0833M12.1667 19.375H15.0833M18.5833 9.75L17.5717 12.3802C17.4072 12.8079 17.325 13.0217 17.1971 13.2016C17.0837 13.3611 16.9444 13.5004 16.785 13.6137C16.6051 13.7416 16.3912 13.8239 15.9635 13.9884L13.3333 15L15.9635 16.0116C16.3912 16.1761 16.6051 16.2584 16.785 16.3863C16.9444 16.4996 17.0837 16.6389 17.1971 16.7984C17.325 16.9783 17.4072 17.1921 17.5717 17.6198L18.5833 20.25L19.5949 17.6198C19.7594 17.1921 19.8417 16.9783 19.9696 16.7984C20.083 16.6389 20.2223 16.4996 20.3817 16.3863C20.5616 16.2584 20.7755 16.1761 21.2032 16.0116L23.8333 15L21.2032 13.9884C20.7755 13.8239 20.5616 13.7416 20.3817 13.6137C20.2223 13.5004 20.083 13.3611 19.9696 13.2016C19.8417 13.0217 19.7594 12.8079 19.5949 12.3802L18.5833 9.75Z" stroke="black" stroke-width="2" stroke-linecap="round" stroke-linejoin="round"/>
</g>
<path d="M11.6667 30.625H23.3333M17.5 24.7917V30.625M9.91667 24.7917H25.0833C27.5336 24.7917 28.7587 24.7917 29.6945 24.3148C30.5178 23.8954 31.187 23.2261 31.6065 22.4029C32.0833 21.467 32.0833 20.2419 32.0833 17.7917V11.375C32.0833 8.92477 32.0833 7.69966 31.6065 6.76379C31.187 5.94058 30.5178 5.27129 29.6945 4.85185C28.7587 4.375 27.5336 4.375 25.0833 4.375H9.91667C7.46644 4.375 6.24133 4.375 5.30546 4.85185C4.48225 5.27129 3.81296 5.94058 3.39352 6.76379C2.91667 7.69966 2.91667 8.92477 2.91667 11.375V17.7917C2.91667 20.2419 2.91667 21.467 3.39352 22.4029C3.81296 23.2261 4.48225 23.8954 5.30546 24.3148C6.24133 24.7917 7.46644 24.7917 9.91667 24.7917Z" stroke="black" stroke-width="2" stroke-linecap="round" stroke-linejoin="round"/>
<defs>
<clipPath id="clip0_185_97">
<rect width="14" height="14" fill="white" transform="translate(11 8)"/>
</clipPath>
</defs>
</svg>
