<svg width="35" height="35" viewBox="0 0 35 35" fill="none" xmlns="http://www.w3.org/2000/svg">
<path d="M11.6667 30.625H23.3334M17.5 24.7917V30.625M9.91669 24.7917H25.0834C27.5336 24.7917 28.7587 24.7917 29.6946 24.3148C30.5178 23.8954 31.1871 23.2261 31.6065 22.4029C32.0834 21.467 32.0834 20.2419 32.0834 17.7917V11.375C32.0834 8.92477 32.0834 7.69966 31.6065 6.76379C31.1871 5.94058 30.5178 5.27129 29.6946 4.85185C28.7587 4.375 27.5336 4.375 25.0834 4.375H9.91669C7.46646 4.375 6.24134 4.375 5.30548 4.85185C4.48227 5.27129 3.81298 5.94058 3.39353 6.76379C2.91669 7.69966 2.91669 8.92477 2.91669 11.375V17.7917C2.91669 20.2419 2.91669 21.467 3.39353 22.4029C3.81298 23.2261 4.48227 23.8954 5.30548 24.3148C6.24134 24.7917 7.46646 24.7917 9.91669 24.7917Z" stroke="black" stroke-width="2" stroke-linecap="round" stroke-linejoin="round"/>
<g clip-path="url(#clip0_185_97)">
<path d="M21.5 20.25H17.5M12.25 20.5417L15.0246 19.2966C15.2021 19.217 15.2908 19.1772 15.3739 19.1252C15.4476 19.079 15.5179 19.0257 15.584 18.9659C15.6585 18.8985 15.7257 18.82 15.8601 18.6632L21.5 12.0833C22.0523 11.439 22.0523 10.3943 21.5 9.75C20.9477 9.10567 20.0523 9.10567 19.5 9.75L13.8601 16.3298C13.7257 16.4867 13.6585 16.5651 13.6007 16.652C13.5494 16.7291 13.5037 16.8111 13.4641 16.8972C13.4196 16.994 13.3854 17.0975 13.3172 17.3046L12.25 20.5417ZM12.25 20.5417L13.2791 17.4202C13.3527 17.1969 13.3895 17.0852 13.4527 17.034C13.5079 16.9893 13.5762 16.9724 13.6421 16.9871C13.7177 17.0039 13.7902 17.0885 13.9352 17.2578L15.0648 18.5756C15.2098 18.7448 15.2824 18.8294 15.2968 18.9175C15.3094 18.9945 15.2949 19.0742 15.2566 19.1386C15.2127 19.2122 15.117 19.2552 14.9255 19.3411L12.25 20.5417Z" stroke="black" stroke-width="2" stroke-linecap="round" stroke-linejoin="round"/>
</g>
<defs>
<clipPath id="clip0_185_97">
<rect width="12" height="14" fill="white" transform="translate(11 8)"/>
</clipPath>
</defs>
</svg>
