<?xml version="1.0" encoding="UTF-8"?>
<svg id="Layer_1" data-name="Layer 1" xmlns="http://www.w3.org/2000/svg" version="1.1" viewBox="0 0 158.2 158.2">
  <defs>
    <style>
      .cls-1 {
        fill: #d4d4d4;
      }

      .cls-1, .cls-2 {
        stroke-width: 0px;
      }

      .cls-2 {
        fill: #fff;
        fill-opacity: 0;
      }
    </style>
  </defs>
  <path class="cls-2" d="M89.6,175.6H-49.4c0-64.7,0-129.3,0-194,86.3,0,172.7,0,259,0v194c-39.8,0-79.7,0-120,0M31.5,68.9c-14,10.3-21.2,24.2-20.7,41.5.6,20.8,15.1,39.1,34.9,45,20.5,6.1,42.7-1.4,54.9-18.6,5.9-8.4,9-17.7,9-28,0-18.9,0-37.8,0-57.3,12.3,8.5,25.1,13.5,39.8,13.1v-25.2c-10.7-.6-20.2-4.1-27.9-11.6-7.8-7.7-11.7-17.1-12.2-27.9h-25.7c0,2.1,0,3.9,0,5.8,0,34.5,0,69,0,103.4,0,10-6.5,18.5-16.1,21.7-9.4,3.1-19.7-.2-25.9-8.1-6-7.8-6.5-18.2-1-26.5,6.4-9.8,15.8-12.3,26.8-10v-25.7c-13-1.8-24.6,1-35.9,8.4Z"/>
  <path class="cls-1" d="M31.8,68.7c11-7.2,22.6-10.1,35.6-8.2v25.7c-11-2.2-20.4.2-26.8,10-5.5,8.4-5,18.7,1,26.5,6.1,7.9,16.5,11.2,25.9,8.1,9.6-3.2,16.1-11.6,16.1-21.7,0-34.5,0-69,0-103.4,0-1.8,0-3.6,0-5.8h25.7c.5,10.8,4.4,20.2,12.2,27.9,7.7,7.5,17.2,11,27.9,11.6v25.2c-14.7.3-27.5-4.6-39.8-13.1,0,19.5,0,38.4,0,57.3,0,10.3-3.1,19.6-9,28-12.2,17.2-34.4,24.7-54.9,18.6-19.8-5.9-34.4-24.2-34.9-45-.5-17.3,6.7-31.2,21-41.7Z"/>
</svg>